# xmcd
#
# Track frame offsets:
#	150
#	32270
#	69010
#	99395
#
# Disc length: 1694 seconds
#
# Revision: 2
# Processed by: cddbd v1.5.1PL2 Copyright (c) Steve Scherf et al.
# Submitted via: EasyCDDAExtractor 8.0.2.1
#
DISCID=1f069c04
DTITLE=Ozzy Osbourne - Oakland 25-02-96 Disc 2
DYEAR=1996
DGENRE=Hard Rock
TTITLE0=Mr Crowley
TTITLE1=War Pigs
TTITLE2=Crazy Train
TTITLE3=Bark At The Moon
EXTD=
EXTT0=
EXTT1=
EXTT2=
EXTT3=
PLAYORDER=
